<mxfile host="app.diagrams.net" modified="2024-01-30T08:35:37.440Z" agent="Mozilla/5.0 (Windows NT 10.0; Win64; x64) AppleWebKit/537.36 (KHTML, like Gecko) Chrome/121.0.0.0 Safari/537.36 Edg/121.0.0.0" etag="Euf90EoZo-CO3X7trOUR" version="23.0.1" type="github">
  <diagram name="Page-1" id="edf60f1a-56cd-e834-aa8a-f176f3a09ee4">
    <mxGraphModel dx="3319" dy="976" grid="1" gridSize="10" guides="1" tooltips="1" connect="1" arrows="1" fold="1" page="1" pageScale="1" pageWidth="1100" pageHeight="850" background="none" math="0" shadow="0">
      <root>
        <mxCell id="0" />
        <mxCell id="1" parent="0" />
        <mxCell id="OmKx0li2kjF5d8hpPDc7-16" value="src\main_dso_pangolin.cpp\main()" style="swimlane;startSize=30;" parent="1" vertex="1">
          <mxGeometry x="-500" y="155" width="240" height="540" as="geometry">
            <mxRectangle x="-500" y="155" width="130" height="23" as="alternateBounds" />
          </mxGeometry>
        </mxCell>
        <mxCell id="bHK8dPhPbQFocSzbyguQ-11" value="" style="edgeStyle=orthogonalEdgeStyle;rounded=0;orthogonalLoop=1;jettySize=auto;html=1;" parent="OmKx0li2kjF5d8hpPDc7-16" source="bHK8dPhPbQFocSzbyguQ-6" target="bHK8dPhPbQFocSzbyguQ-10" edge="1">
          <mxGeometry relative="1" as="geometry" />
        </mxCell>
        <mxCell id="bHK8dPhPbQFocSzbyguQ-6" value="主流程&lt;br&gt;addActiveFrame(img, i)" style="whiteSpace=wrap;html=1;rounded=1;" parent="OmKx0li2kjF5d8hpPDc7-16" vertex="1">
          <mxGeometry x="40" y="220" width="120" height="60" as="geometry" />
        </mxCell>
        <mxCell id="bHK8dPhPbQFocSzbyguQ-10" value="保存结果，性能评估" style="whiteSpace=wrap;html=1;rounded=1;" parent="OmKx0li2kjF5d8hpPDc7-16" vertex="1">
          <mxGeometry x="40" y="360" width="120" height="60" as="geometry" />
        </mxCell>
        <mxCell id="bHK8dPhPbQFocSzbyguQ-5" value="初始化&lt;br&gt;（加载参数，加载图片，光度矫正，显示设置，多线程设置）" style="rounded=1;whiteSpace=wrap;html=1;" parent="OmKx0li2kjF5d8hpPDc7-16" vertex="1">
          <mxGeometry x="40" y="80" width="120" height="60" as="geometry" />
        </mxCell>
        <mxCell id="bHK8dPhPbQFocSzbyguQ-7" value="" style="edgeStyle=orthogonalEdgeStyle;rounded=0;orthogonalLoop=1;jettySize=auto;html=1;" parent="OmKx0li2kjF5d8hpPDc7-16" source="bHK8dPhPbQFocSzbyguQ-5" target="bHK8dPhPbQFocSzbyguQ-6" edge="1">
          <mxGeometry relative="1" as="geometry" />
        </mxCell>
        <mxCell id="xofyj-zYLuGItKc7lHyt-11" value="" style="edgeStyle=orthogonalEdgeStyle;rounded=0;orthogonalLoop=1;jettySize=auto;html=1;entryX=0;entryY=0.5;entryDx=0;entryDy=0;" edge="1" parent="1" source="bHK8dPhPbQFocSzbyguQ-6" target="xofyj-zYLuGItKc7lHyt-16">
          <mxGeometry relative="1" as="geometry">
            <mxPoint x="-180" y="405" as="targetPoint" />
          </mxGeometry>
        </mxCell>
        <mxCell id="xofyj-zYLuGItKc7lHyt-12" value="src\FullSystem\FullSystem.cpp" style="swimlane;startSize=30;" vertex="1" parent="1">
          <mxGeometry x="-180" y="170" width="610" height="1600" as="geometry">
            <mxRectangle x="-180" y="170" width="130" height="23" as="alternateBounds" />
          </mxGeometry>
        </mxCell>
        <mxCell id="xofyj-zYLuGItKc7lHyt-32" value="" style="edgeStyle=orthogonalEdgeStyle;rounded=0;orthogonalLoop=1;jettySize=auto;html=1;fontFamily=Helvetica;fontSize=12;fontColor=default;startSize=30;" edge="1" parent="xofyj-zYLuGItKc7lHyt-12" source="xofyj-zYLuGItKc7lHyt-16" target="xofyj-zYLuGItKc7lHyt-26">
          <mxGeometry relative="1" as="geometry" />
        </mxCell>
        <mxCell id="xofyj-zYLuGItKc7lHyt-16" value="创建FrameHessian" style="rounded=1;whiteSpace=wrap;html=1;" vertex="1" parent="xofyj-zYLuGItKc7lHyt-12">
          <mxGeometry x="40" y="80" width="120" height="60" as="geometry" />
        </mxCell>
        <mxCell id="xofyj-zYLuGItKc7lHyt-30" value="" style="edgeStyle=orthogonalEdgeStyle;rounded=0;orthogonalLoop=1;jettySize=auto;html=1;fontFamily=Helvetica;fontSize=12;fontColor=default;startSize=30;" edge="1" parent="xofyj-zYLuGItKc7lHyt-12" source="xofyj-zYLuGItKc7lHyt-26" target="xofyj-zYLuGItKc7lHyt-29">
          <mxGeometry relative="1" as="geometry" />
        </mxCell>
        <mxCell id="xofyj-zYLuGItKc7lHyt-31" value="否" style="edgeLabel;html=1;align=center;verticalAlign=middle;resizable=0;points=[];fontSize=12;fontFamily=Helvetica;fontColor=default;" vertex="1" connectable="0" parent="xofyj-zYLuGItKc7lHyt-30">
          <mxGeometry x="-0.0526" relative="1" as="geometry">
            <mxPoint as="offset" />
          </mxGeometry>
        </mxCell>
        <mxCell id="xofyj-zYLuGItKc7lHyt-34" value="" style="edgeStyle=orthogonalEdgeStyle;rounded=0;orthogonalLoop=1;jettySize=auto;html=1;fontFamily=Helvetica;fontSize=12;fontColor=default;startSize=30;" edge="1" parent="xofyj-zYLuGItKc7lHyt-12" source="xofyj-zYLuGItKc7lHyt-26" target="xofyj-zYLuGItKc7lHyt-33">
          <mxGeometry relative="1" as="geometry" />
        </mxCell>
        <mxCell id="xofyj-zYLuGItKc7lHyt-35" value="是" style="edgeLabel;html=1;align=center;verticalAlign=middle;resizable=0;points=[];fontSize=12;fontFamily=Helvetica;fontColor=default;" vertex="1" connectable="0" parent="xofyj-zYLuGItKc7lHyt-34">
          <mxGeometry x="-0.1368" y="2" relative="1" as="geometry">
            <mxPoint as="offset" />
          </mxGeometry>
        </mxCell>
        <mxCell id="xofyj-zYLuGItKc7lHyt-26" value="是否初始化？" style="html=1;whiteSpace=wrap;aspect=fixed;shape=isoRectangle;strokeColor=default;align=center;verticalAlign=middle;fontFamily=Helvetica;fontSize=12;fontColor=default;startSize=30;fillColor=default;" vertex="1" parent="xofyj-zYLuGItKc7lHyt-12">
          <mxGeometry x="25" y="180" width="150" height="90" as="geometry" />
        </mxCell>
        <mxCell id="xofyj-zYLuGItKc7lHyt-40" value="" style="edgeStyle=orthogonalEdgeStyle;rounded=0;orthogonalLoop=1;jettySize=auto;html=1;fontFamily=Helvetica;fontSize=12;fontColor=default;startSize=30;" edge="1" parent="xofyj-zYLuGItKc7lHyt-12" source="xofyj-zYLuGItKc7lHyt-33" target="xofyj-zYLuGItKc7lHyt-39">
          <mxGeometry relative="1" as="geometry" />
        </mxCell>
        <mxCell id="xofyj-zYLuGItKc7lHyt-33" value="trackNewCoarse计算新帧位姿" style="rounded=1;whiteSpace=wrap;html=1;startSize=30;" vertex="1" parent="xofyj-zYLuGItKc7lHyt-12">
          <mxGeometry x="40" y="320" width="120" height="60" as="geometry" />
        </mxCell>
        <mxCell id="xofyj-zYLuGItKc7lHyt-29" value="初始化" style="rounded=1;whiteSpace=wrap;html=1;startSize=30;" vertex="1" parent="xofyj-zYLuGItKc7lHyt-12">
          <mxGeometry x="270" y="195" width="120" height="60" as="geometry" />
        </mxCell>
        <mxCell id="xofyj-zYLuGItKc7lHyt-47" value="" style="edgeStyle=orthogonalEdgeStyle;rounded=0;orthogonalLoop=1;jettySize=auto;html=1;fontFamily=Helvetica;fontSize=12;fontColor=default;startSize=30;" edge="1" parent="xofyj-zYLuGItKc7lHyt-12" source="xofyj-zYLuGItKc7lHyt-39" target="xofyj-zYLuGItKc7lHyt-46">
          <mxGeometry relative="1" as="geometry" />
        </mxCell>
        <mxCell id="xofyj-zYLuGItKc7lHyt-48" value="是" style="edgeLabel;html=1;align=center;verticalAlign=middle;resizable=0;points=[];fontSize=12;fontFamily=Helvetica;fontColor=default;" vertex="1" connectable="0" parent="xofyj-zYLuGItKc7lHyt-47">
          <mxGeometry x="-0.1368" y="2" relative="1" as="geometry">
            <mxPoint as="offset" />
          </mxGeometry>
        </mxCell>
        <mxCell id="xofyj-zYLuGItKc7lHyt-51" value="" style="edgeStyle=orthogonalEdgeStyle;rounded=0;orthogonalLoop=1;jettySize=auto;html=1;fontFamily=Helvetica;fontSize=12;fontColor=default;startSize=30;" edge="1" parent="xofyj-zYLuGItKc7lHyt-12" source="xofyj-zYLuGItKc7lHyt-39" target="xofyj-zYLuGItKc7lHyt-50">
          <mxGeometry relative="1" as="geometry" />
        </mxCell>
        <mxCell id="xofyj-zYLuGItKc7lHyt-52" value="否" style="edgeLabel;html=1;align=center;verticalAlign=middle;resizable=0;points=[];fontSize=12;fontFamily=Helvetica;fontColor=default;" vertex="1" connectable="0" parent="xofyj-zYLuGItKc7lHyt-51">
          <mxGeometry x="-0.1158" y="-5" relative="1" as="geometry">
            <mxPoint as="offset" />
          </mxGeometry>
        </mxCell>
        <mxCell id="xofyj-zYLuGItKc7lHyt-39" value="是否为关键帧？" style="html=1;whiteSpace=wrap;aspect=fixed;shape=isoRectangle;strokeColor=default;align=center;verticalAlign=middle;fontFamily=Helvetica;fontSize=12;fontColor=default;startSize=30;fillColor=default;" vertex="1" parent="xofyj-zYLuGItKc7lHyt-12">
          <mxGeometry x="25" y="420" width="150" height="90" as="geometry" />
        </mxCell>
        <mxCell id="xofyj-zYLuGItKc7lHyt-54" value="" style="edgeStyle=orthogonalEdgeStyle;rounded=0;orthogonalLoop=1;jettySize=auto;html=1;fontFamily=Helvetica;fontSize=12;fontColor=default;startSize=30;" edge="1" parent="xofyj-zYLuGItKc7lHyt-12" source="xofyj-zYLuGItKc7lHyt-46" target="xofyj-zYLuGItKc7lHyt-53">
          <mxGeometry relative="1" as="geometry" />
        </mxCell>
        <mxCell id="xofyj-zYLuGItKc7lHyt-46" value="traceNewCoarse更新未成熟点" style="rounded=1;whiteSpace=wrap;html=1;startSize=30;" vertex="1" parent="xofyj-zYLuGItKc7lHyt-12">
          <mxGeometry x="40" y="605" width="120" height="60" as="geometry" />
        </mxCell>
        <mxCell id="xofyj-zYLuGItKc7lHyt-50" value="traceNewCoarse更新未成熟点" style="rounded=1;whiteSpace=wrap;html=1;startSize=30;" vertex="1" parent="xofyj-zYLuGItKc7lHyt-12">
          <mxGeometry x="270" y="435" width="120" height="60" as="geometry" />
        </mxCell>
        <mxCell id="xofyj-zYLuGItKc7lHyt-56" value="" style="edgeStyle=orthogonalEdgeStyle;rounded=0;orthogonalLoop=1;jettySize=auto;html=1;fontFamily=Helvetica;fontSize=12;fontColor=default;startSize=30;" edge="1" parent="xofyj-zYLuGItKc7lHyt-12" source="xofyj-zYLuGItKc7lHyt-53" target="xofyj-zYLuGItKc7lHyt-55">
          <mxGeometry relative="1" as="geometry" />
        </mxCell>
        <mxCell id="xofyj-zYLuGItKc7lHyt-53" value="新关键帧加入后端优化" style="rounded=1;whiteSpace=wrap;html=1;startSize=30;" vertex="1" parent="xofyj-zYLuGItKc7lHyt-12">
          <mxGeometry x="40" y="745" width="120" height="60" as="geometry" />
        </mxCell>
        <mxCell id="xofyj-zYLuGItKc7lHyt-58" value="" style="edgeStyle=orthogonalEdgeStyle;rounded=0;orthogonalLoop=1;jettySize=auto;html=1;fontFamily=Helvetica;fontSize=12;fontColor=default;startSize=30;" edge="1" parent="xofyj-zYLuGItKc7lHyt-12" source="xofyj-zYLuGItKc7lHyt-55" target="xofyj-zYLuGItKc7lHyt-57">
          <mxGeometry relative="1" as="geometry" />
        </mxCell>
        <mxCell id="xofyj-zYLuGItKc7lHyt-55" value="将旧地图点投影到新关键帧，产生残差" style="rounded=1;whiteSpace=wrap;html=1;startSize=30;" vertex="1" parent="xofyj-zYLuGItKc7lHyt-12">
          <mxGeometry x="40" y="885" width="120" height="60" as="geometry" />
        </mxCell>
        <mxCell id="xofyj-zYLuGItKc7lHyt-60" value="" style="edgeStyle=orthogonalEdgeStyle;rounded=0;orthogonalLoop=1;jettySize=auto;html=1;fontFamily=Helvetica;fontSize=12;fontColor=default;startSize=30;" edge="1" parent="xofyj-zYLuGItKc7lHyt-12" source="xofyj-zYLuGItKc7lHyt-57" target="xofyj-zYLuGItKc7lHyt-59">
          <mxGeometry relative="1" as="geometry" />
        </mxCell>
        <mxCell id="xofyj-zYLuGItKc7lHyt-57" value="activatePoint将未成熟点转化为地图点" style="rounded=1;whiteSpace=wrap;html=1;startSize=30;" vertex="1" parent="xofyj-zYLuGItKc7lHyt-12">
          <mxGeometry x="40" y="1025" width="120" height="60" as="geometry" />
        </mxCell>
        <mxCell id="xofyj-zYLuGItKc7lHyt-63" value="" style="edgeStyle=orthogonalEdgeStyle;rounded=0;orthogonalLoop=1;jettySize=auto;html=1;fontFamily=Helvetica;fontSize=12;fontColor=default;startSize=30;" edge="1" parent="xofyj-zYLuGItKc7lHyt-12" source="xofyj-zYLuGItKc7lHyt-59" target="xofyj-zYLuGItKc7lHyt-62">
          <mxGeometry relative="1" as="geometry" />
        </mxCell>
        <mxCell id="xofyj-zYLuGItKc7lHyt-59" value="optimize后端优化" style="rounded=1;whiteSpace=wrap;html=1;startSize=30;" vertex="1" parent="xofyj-zYLuGItKc7lHyt-12">
          <mxGeometry x="40" y="1165" width="120" height="60" as="geometry" />
        </mxCell>
        <mxCell id="xofyj-zYLuGItKc7lHyt-65" value="" style="edgeStyle=orthogonalEdgeStyle;rounded=0;orthogonalLoop=1;jettySize=auto;html=1;fontFamily=Helvetica;fontSize=12;fontColor=default;startSize=30;" edge="1" parent="xofyj-zYLuGItKc7lHyt-12" source="xofyj-zYLuGItKc7lHyt-62" target="xofyj-zYLuGItKc7lHyt-64">
          <mxGeometry relative="1" as="geometry" />
        </mxCell>
        <mxCell id="xofyj-zYLuGItKc7lHyt-62" value="makeNewTraces提取新的未成熟点" style="rounded=1;whiteSpace=wrap;html=1;startSize=30;" vertex="1" parent="xofyj-zYLuGItKc7lHyt-12">
          <mxGeometry x="40" y="1305" width="120" height="60" as="geometry" />
        </mxCell>
        <mxCell id="xofyj-zYLuGItKc7lHyt-67" style="edgeStyle=orthogonalEdgeStyle;rounded=0;orthogonalLoop=1;jettySize=auto;html=1;exitX=0.5;exitY=1;exitDx=0;exitDy=0;fontFamily=Helvetica;fontSize=12;fontColor=default;startSize=30;entryX=0.5;entryY=0;entryDx=0;entryDy=0;" edge="1" parent="xofyj-zYLuGItKc7lHyt-12" source="xofyj-zYLuGItKc7lHyt-64" target="xofyj-zYLuGItKc7lHyt-16">
          <mxGeometry relative="1" as="geometry">
            <mxPoint x="430" y="1490" as="targetPoint" />
            <Array as="points">
              <mxPoint x="100" y="1530" />
              <mxPoint x="480" y="1530" />
              <mxPoint x="480" y="60" />
              <mxPoint x="100" y="60" />
            </Array>
          </mxGeometry>
        </mxCell>
        <mxCell id="xofyj-zYLuGItKc7lHyt-64" value="UI更新" style="rounded=1;whiteSpace=wrap;html=1;startSize=30;" vertex="1" parent="xofyj-zYLuGItKc7lHyt-12">
          <mxGeometry x="40" y="1445" width="120" height="65" as="geometry" />
        </mxCell>
      </root>
    </mxGraphModel>
  </diagram>
</mxfile>
